<svg width="48" height="48" viewBox="0 0 48 48" fill="none" xmlns="http://www.w3.org/2000/svg">
<rect width="48" height="48" fill="#323238"/>
<path d="M37.125 19.125L34 20.8438L30.875 23.8125V34H35.25C36.2856 34 37.125 33.1606 37.125 32.125V19.125Z" fill="white"/>
<path d="M10.875 19.125L13.1337 20.1937L17.125 23.8125V34H12.75C11.7144 34 10.875 33.1606 10.875 32.125V19.125Z" fill="white"/>
<path d="M30.875 16L24 21.1562L17.125 16L16.5 19.625L17.125 23.8125L24 28.9687L30.875 23.8125L31.5 19.625L30.875 16Z" fill="#C4C4CC"/>
<path d="M10.875 16.6862V19.125L17.125 23.8125V16L15.1725 14.5369C14.7075 14.1881 14.1425 14 13.5612 14C12.0775 14 10.875 15.2025 10.875 16.6862Z" fill="#8D8D99"/>
<path d="M37.125 16.6862V19.125L30.875 23.8125V16L32.8275 14.5369C33.2925 14.1881 33.8575 14 34.4387 14C35.9225 14 37.125 15.2025 37.125 16.6862Z" fill="#8D8D99"/>
</svg>
