<svg width="161" height="28" viewBox="0 0 322 55" fill="none" xmlns="http://www.w3.org/2000/svg" class="styles_logo__w7Ckz"><path fill-rule="evenodd" clip-rule="evenodd" d="M25.28 29.1477V19.8794L0.928648 29.4015H0.869629V38.8941H0.928648L25.28 48.4163V39.1834L12.7885 34.1655L25.28 29.1477Z" fill="#8257E5"></path><path fill-rule="evenodd" clip-rule="evenodd" d="M157.946 47.9325V38.6642L170.414 33.6758L157.946 28.6875V19.4192L182.274 28.9413H182.327V38.4635H182.274L157.946 47.9325ZM147.509 6.34326L133.193 54.5856H141.682L155.974 6.34326H147.509Z" fill="#8257E5"></path><path fill-rule="evenodd" clip-rule="evenodd" d="M61.0542 18.1323C63.485 20.9748 64.7504 24.6317 64.5962 28.3687V48.9065H56.0954V30.2342C56.198 28.1727 55.5709 26.1411 54.3244 24.4961C53.7525 23.7959 53.0274 23.2365 52.2051 22.8609C51.3869 22.4898 50.4936 22.314 49.5958 22.3473C44.2828 22.3473 41.6262 26.2199 41.6262 33.9651V48.9065H33.1372V15.1747H41.6322V18.2149C42.9484 16.8531 44.5404 15.7883 46.3017 15.092C48.0322 14.4025 49.8895 14.0886 51.7505 14.1711C53.4888 14.0898 55.2228 14.4048 56.8215 15.092C58.4319 15.7941 59.8747 16.8304 61.0542 18.1323Z" fill="white"></path><path fill-rule="evenodd" clip-rule="evenodd" d="M71.2317 1.1543V49.3907H79.7266V1.1543H71.2317Z" fill="white"></path><path fill-rule="evenodd" clip-rule="evenodd" d="M125.2 49.3909H118.116L111.144 29.5202L104.131 49.3909H97.047L85.1694 15.606H94.2429L100.943 35.825L107.838 15.606H114.48L121.381 35.884L128.075 15.606H137.119L125.2 49.3909Z" fill="white"></path><path d="M222.21 28.8113V48.8828H213.485V30.659C213.485 26.0367 210.84 22.9256 206.808 22.9256C201.855 22.9256 198.614 26.2315 198.614 34.2955V48.9064H189.889V0.837891H198.614V18.8936C201.194 16.3198 204.63 14.9325 208.992 14.9325C216.921 14.9325 222.21 20.6174 222.21 28.8113Z" fill="url(#nlwheat0_linear)"></path><path d="M259.094 34.7619H233.975C234.831 39.52 238.208 42.4363 242.24 42.4363C244.814 42.4363 248.055 42.1057 250.434 38.0737L258.232 39.7208C255.328 46.5982 249.442 49.9041 242.24 49.9041C232.919 49.9041 225.315 42.82 225.315 32.4537C225.315 22.0874 232.919 14.9384 242.37 14.9384C251.16 14.9384 258.764 21.745 259.094 31.7925V34.7619ZM234.241 28.6106H250.18C249.059 24.3838 245.883 22.5301 242.382 22.5301C239.064 22.5301 235.298 24.5136 234.241 28.6106Z" fill="url(#nlwheat1_linear)"></path><path d="M295.329 47.9146C293.741 48.825 291.941 49.3033 290.111 49.3019C286.87 49.3019 284.491 48.1803 283.233 45.3998C280.919 47.9796 277.33 49.8982 272.129 49.8982C265.122 49.8982 260.428 45.8012 260.428 39.6499C260.428 33.4986 264.992 29.7381 273.256 29.0769L282.342 28.3508V28.0202C282.342 24.7143 280.293 22.2645 276.438 22.2645C273.268 22.2645 271.084 23.9882 270.423 27.2882L262.359 25.6412C263.746 18.9645 269.101 14.9325 276.769 14.9325C284.833 14.9325 290.654 19.36 290.654 27.3591V39.1245C290.654 40.5118 291.179 41.2379 291.976 41.2379C292.372 41.2379 293.033 41.173 294.615 41.0372L295.329 47.9146ZM282.342 35.5529V34.2955L273.947 35.2223C270.576 35.6179 269.118 37.2059 269.118 39.3193C269.118 41.6334 271.037 42.9558 273.947 42.9558C278.8 42.9558 282.342 39.7738 282.342 35.5529Z" fill="url(#nlwheat2_linear)"></path><path d="M308.464 36.7454C308.464 39.9805 309.987 41.7692 312.632 41.7692C314.554 41.6484 316.427 41.1063 318.116 40.1812L320.631 47.4483C317.189 49.3019 314.81 49.8982 312.036 49.8982C304.172 49.8982 299.739 45.3998 299.739 37.4066V23.0614H292.655V15.9243H299.739V3.95814L308.464 1.31343V15.9243H321.221V23.0614H308.464V36.7454Z" fill="url(#nlwheat3_linear)"></path><defs><linearGradient id="nlwheat0_linear" x1="331.081" y1="22.9642" x2="189.89" y2="23.3486" gradientUnits="userSpaceOnUse"><stop stop-color="#FF008E"></stop><stop offset="1" stop-color="#8257E5"></stop></linearGradient><linearGradient id="nlwheat1_linear" x1="331.081" y1="22.9642" x2="189.89" y2="23.3486" gradientUnits="userSpaceOnUse"><stop stop-color="#FF008E"></stop><stop offset="1" stop-color="#8257E5"></stop></linearGradient><linearGradient id="nlwheat2_linear" x1="331.081" y1="22.9642" x2="189.89" y2="23.3486" gradientUnits="userSpaceOnUse"><stop stop-color="#FF008E"></stop><stop offset="1" stop-color="#8257E5"></stop></linearGradient><linearGradient id="nlwheat3_linear" x1="331.081" y1="22.9642" x2="189.89" y2="23.3486" gradientUnits="userSpaceOnUse"><stop stop-color="#FF008E"></stop><stop offset="1" stop-color="#8257E5"></stop></linearGradient></defs></svg>